# xmcd CD database file generated by Grip 2.96
# 
# Track frame offsets:
#       180
#       15917
#       30347
#       43292
#       61950
#       82477
#       96415
#       110887
#       127327
#       143337
# 
# Disc length: 2141 seconds
# 
# Revision: 0
# Processed by: cddbd v1.4PL0 Copyright (c) Steve Scherf et al.
# Submitted via: Grip 2.96
# 
DISCID=8c085b0a
DTITLE=Dennis Agajanian - There Is A Road
DYEAR=1900
DGENRE=
TTITLE0=There is A Road
TTITLE1=Broken Hearted
TTITLE2=It's Bible Time
TTITLE3=Do You Know Jesus
TTITLE4=Lord, Give Us America
TTITLE5=Willing
TTITLE6=Keep On
TTITLE7=Mid-Life
TTITLE8=Forgive Me Father
TTITLE9=Red and White Tent
EXTD=
EXTT0=
EXTT1=
EXTT2=
EXTT3=
EXTT4=
EXTT5=
EXTT6=
EXTT7=
EXTT8=
EXTT9=
PLAYORDER=
